<svg width="100" height="100" viewBox="0 0 100 100" fill="none" xmlns="http://www.w3.org/2000/svg">
<path d="M50 100C56.6304 100 62.9893 97.3661 67.6777 92.6777C72.3661 87.9893 75 81.6304 75 75C81.6304 75 87.9893 72.3661 92.6777 67.6777C97.3661 62.9893 100 56.6304 100 50C100 43.3696 97.3661 37.0107 92.6777 32.3223C87.9893 27.6339 81.6304 25 75 25C75 18.3696 72.3661 12.0107 67.6777 7.32233C62.9893 2.63392 56.6304 0 50 0C43.3696 0 37.0107 2.63392 32.3223 7.32233C27.6339 12.0107 25 18.3696 25 25C18.3696 25 12.0107 27.6339 7.32233 32.3223C2.63392 37.0107 0 43.3696 0 50C0 56.6304 2.63392 62.9893 7.32233 67.6777C12.0107 72.3661 18.3696 75 25 75C25 81.6304 27.6339 87.9893 32.3223 92.6777C37.0107 97.3661 43.3696 100 50 100ZM68.75 25C68.75 25.4583 68.6875 25.9729 68.5625 26.5438C65.1625 28.05 61.7437 30.5312 58.575 33.3187C55.9219 31.9571 52.9822 31.2478 50 31.25C46.9125 31.25 44 32 41.425 33.3187C38.2562 30.5312 34.8375 28.05 31.4438 26.5438C31.3151 26.0392 31.25 25.5206 31.25 25C31.25 20.0272 33.2254 15.2581 36.7417 11.7417C40.2581 8.22544 45.0272 6.25 50 6.25C54.9728 6.25 59.7419 8.22544 63.2583 11.7417C66.7746 15.2581 68.75 20.0272 68.75 25ZM63.675 62.825C66.9347 59.3501 68.7492 54.7645 68.75 50C68.7492 45.2355 66.9347 40.6499 63.675 37.175C65.0187 36.05 66.375 35.0125 67.7188 34.1312C70.875 32.0687 73.325 31.25 75 31.25C79.9728 31.25 84.7419 33.2254 88.2583 36.7417C91.7746 40.2581 93.75 45.0272 93.75 50C93.75 54.9728 91.7746 59.7419 88.2583 63.2583C84.7419 66.7746 79.9728 68.75 75 68.75C73.325 68.75 70.875 67.9375 67.7188 65.8687C66.3132 64.933 64.963 63.9168 63.675 62.825ZM41.425 66.6812C44.0775 68.0454 47.0173 68.757 50 68.757C52.9827 68.757 55.9225 68.0454 58.575 66.6812C61.7437 69.4687 65.1625 71.9438 68.5625 73.4563C68.6875 74.0271 68.75 74.5417 68.75 75C68.75 79.9728 66.7746 84.7419 63.2583 88.2583C59.7419 91.7746 54.9728 93.75 50 93.75C45.0272 93.75 40.2581 91.7746 36.7417 88.2583C33.2254 84.7419 31.25 79.9728 31.25 75C31.25 74.5417 31.3125 74.0271 31.4375 73.4563C34.8375 71.9438 38.2562 69.4687 41.425 66.6812ZM36.325 37.175C33.0653 40.6499 31.2508 45.2355 31.25 50C31.25 54.9625 33.175 59.475 36.325 62.825C35.0369 63.9168 33.6868 64.933 32.2812 65.8687C29.125 67.9312 26.675 68.75 25 68.75C20.0272 68.75 15.2581 66.7746 11.7417 63.2583C8.22544 59.7419 6.25 54.9728 6.25 50C6.25 45.0272 8.22544 40.2581 11.7417 36.7417C15.2581 33.2254 20.0272 31.25 25 31.25C26.675 31.25 29.125 32.0625 32.2812 34.1312C33.625 35.0125 34.9812 36.0437 36.325 37.175ZM50 56.25C48.3424 56.25 46.7527 55.5915 45.5806 54.4194C44.4085 53.2473 43.75 51.6576 43.75 50C43.75 48.3424 44.4085 46.7527 45.5806 45.5806C46.7527 44.4085 48.3424 43.75 50 43.75C51.6576 43.75 53.2473 44.4085 54.4194 45.5806C55.5915 46.7527 56.25 48.3424 56.25 50C56.25 51.6576 55.5915 53.2473 54.4194 54.4194C53.2473 55.5915 51.6576 56.25 50 56.25Z" fill="#152544"/>
</svg>
