<svg width="50" height="50" viewBox="0 0 50 50" fill="none" xmlns="http://www.w3.org/2000/svg">
<g clip-path="url(#clip0_99_47)">
<rect width="50" height="50" fill="white"/>
<path d="M25 50C28.3152 50 31.4946 48.683 33.8388 46.3388C36.183 43.9946 37.5 40.8152 37.5 37.5C40.8152 37.5 43.9946 36.183 46.3388 33.8388C48.683 31.4946 50 28.3152 50 25C50 21.6848 48.683 18.5054 46.3388 16.1612C43.9946 13.817 40.8152 12.5 37.5 12.5C37.5 9.18479 36.183 6.00537 33.8388 3.66117C31.4946 1.31696 28.3152 0 25 0C21.6848 0 18.5054 1.31696 16.1612 3.66117C13.817 6.00537 12.5 9.18479 12.5 12.5C9.18479 12.5 6.00537 13.817 3.66117 16.1612C1.31696 18.5054 0 21.6848 0 25C0 28.3152 1.31696 31.4946 3.66117 33.8388C6.00537 36.183 9.18479 37.5 12.5 37.5C12.5 40.8152 13.817 43.9946 16.1612 46.3388C18.5054 48.683 21.6848 50 25 50ZM34.375 12.5C34.375 12.7292 34.3438 12.9865 34.2812 13.2719C32.5812 14.025 30.8719 15.2656 29.2875 16.6594C27.9609 15.9785 26.4911 15.6239 25 15.625C23.4563 15.625 22 16 20.7125 16.6594C19.1281 15.2656 17.4188 14.025 15.7219 13.2719C15.6576 13.0196 15.625 12.7603 15.625 12.5C15.625 10.0136 16.6127 7.62903 18.3709 5.87087C20.129 4.11272 22.5136 3.125 25 3.125C27.4864 3.125 29.871 4.11272 31.6291 5.87087C33.3873 7.62903 34.375 10.0136 34.375 12.5ZM31.8375 31.4125C33.4673 29.675 34.3746 27.3823 34.375 25C34.3746 22.6177 33.4673 20.325 31.8375 18.5875C32.5094 18.025 33.1875 17.5062 33.8594 17.0656C35.4375 16.0344 36.6625 15.625 37.5 15.625C39.9864 15.625 42.371 16.6127 44.1291 18.3709C45.8873 20.129 46.875 22.5136 46.875 25C46.875 27.4864 45.8873 29.871 44.1291 31.6291C42.371 33.3873 39.9864 34.375 37.5 34.375C36.6625 34.375 35.4375 33.9687 33.8594 32.9344C33.1566 32.4665 32.4815 31.9584 31.8375 31.4125ZM20.7125 33.3406C22.0388 34.0227 23.5086 34.3785 25 34.3785C26.4914 34.3785 27.9612 34.0227 29.2875 33.3406C30.8719 34.7344 32.5812 35.9719 34.2812 36.7281C34.3438 37.0135 34.375 37.2708 34.375 37.5C34.375 39.9864 33.3873 42.371 31.6291 44.1291C29.871 45.8873 27.4864 46.875 25 46.875C22.5136 46.875 20.129 45.8873 18.3709 44.1291C16.6127 42.371 15.625 39.9864 15.625 37.5C15.625 37.2708 15.6563 37.0135 15.7188 36.7281C17.4188 35.9719 19.1281 34.7344 20.7125 33.3406ZM18.1625 18.5875C16.5327 20.325 15.6254 22.6177 15.625 25C15.625 27.4813 16.5875 29.7375 18.1625 31.4125C17.5185 31.9584 16.8434 32.4665 16.1406 32.9344C14.5625 33.9656 13.3375 34.375 12.5 34.375C10.0136 34.375 7.62903 33.3873 5.87087 31.6291C4.11272 29.871 3.125 27.4864 3.125 25C3.125 22.5136 4.11272 20.129 5.87087 18.3709C7.62903 16.6127 10.0136 15.625 12.5 15.625C13.3375 15.625 14.5625 16.0312 16.1406 17.0656C16.8125 17.5062 17.4906 18.0219 18.1625 18.5875ZM25 28.125C24.1712 28.125 23.3763 27.7958 22.7903 27.2097C22.2042 26.6237 21.875 25.8288 21.875 25C21.875 24.1712 22.2042 23.3763 22.7903 22.7903C23.3763 22.2042 24.1712 21.875 25 21.875C25.8288 21.875 26.6237 22.2042 27.2097 22.7903C27.7958 23.3763 28.125 24.1712 28.125 25C28.125 25.8288 27.7958 26.6237 27.2097 27.2097C26.6237 27.7958 25.8288 28.125 25 28.125Z" fill="#152544"/>
</g>
<defs>
<clipPath id="clip0_99_47">
<rect width="50" height="50" fill="white"/>
</clipPath>
</defs>
</svg>
