<svg width="100" height="100" viewBox="0 0 100 100" fill="none" xmlns="http://www.w3.org/2000/svg">
<g clip-path="url(#clip0_87_65)">
<path d="M37.5 1.73753C38.1085 2.47963 38.4813 3.38673 38.5704 4.34228C38.6595 5.29784 38.4608 6.25821 38 7.10003C34.3846 13.7335 32.4974 21.1703 32.5125 28.725C32.5125 53.8563 53 74.2063 78.25 74.2063C81.55 74.2021 84.7438 73.8688 87.8313 73.2063C88.7758 73.0042 89.7588 73.0836 90.6586 73.4347C91.5585 73.7857 92.3356 74.393 92.8937 75.1813C93.4843 76.0016 93.7856 76.9948 93.7506 78.005C93.7155 79.0152 93.346 79.9851 92.7 80.7625C87.7977 86.7837 81.6137 91.6351 74.5987 94.9631C67.5836 98.2911 59.9144 100.012 52.15 100C23.3375 100 0 76.7875 0 48.1875C0 26.6625 13.2125 8.20003 32.025 0.375026C32.9618 -0.0230987 34.0027 -0.105482 34.9904 0.140327C35.9782 0.386136 36.8591 0.946777 37.5 1.73753Z" fill="#1F3358"/>
</g>
<defs>
<clipPath id="clip0_87_65">
<rect width="100" height="100" fill="white"/>
</clipPath>
</defs>
</svg>
