<svg width="40" height="23" viewBox="0 0 40 23" fill="none" xmlns="http://www.w3.org/2000/svg">
<path fill-rule="evenodd" clip-rule="evenodd" d="M0.650391 11.3833C0.650391 11.0693 0.797966 10.7683 1.06065 10.5463C1.32334 10.3243 1.67962 10.1996 2.05111 10.1996H35.0885L26.2724 2.75157C26.0093 2.5293 25.8616 2.22783 25.8616 1.91349C25.8616 1.59915 26.0093 1.29769 26.2724 1.07541C26.5354 0.853142 26.8921 0.728271 27.2641 0.728271C27.636 0.728271 27.9928 0.853142 28.2558 1.07541L39.4615 10.5452C39.592 10.6552 39.6955 10.7858 39.7661 10.9296C39.8367 11.0734 39.873 11.2276 39.873 11.3833C39.873 11.539 39.8367 11.6932 39.7661 11.837C39.6955 11.9808 39.592 12.1114 39.4615 12.2214L28.2558 21.6912C27.9928 21.9134 27.636 22.0383 27.2641 22.0383C26.8921 22.0383 26.5354 21.9134 26.2724 21.6912C26.0093 21.4689 25.8616 21.1674 25.8616 20.8531C25.8616 20.5387 26.0093 20.2373 26.2724 20.015L35.0885 12.567H2.05111C1.67962 12.567 1.32334 12.4423 1.06065 12.2203C0.797966 11.9983 0.650391 11.6972 0.650391 11.3833Z" fill="#78BAF9"/>
</svg>
