<svg width="101" height="100" viewBox="0 0 101 100" fill="none" xmlns="http://www.w3.org/2000/svg">
<g clip-path="url(#clip0_87_70)">
<path d="M50.3672 75C56.9976 75 63.3565 72.3661 68.0449 67.6777C72.7333 62.9893 75.3672 56.6304 75.3672 50C75.3672 43.3696 72.7333 37.0107 68.0449 32.3223C63.3565 27.6339 56.9976 25 50.3672 25C43.7368 25 37.3779 27.6339 32.6895 32.3223C28.0011 37.0107 25.3672 43.3696 25.3672 50C25.3672 56.6304 28.0011 62.9893 32.6895 67.6777C37.3779 72.3661 43.7368 75 50.3672 75ZM50.3672 0C51.196 0 51.9908 0.32924 52.5769 0.915291C53.1629 1.50134 53.4922 2.2962 53.4922 3.125V15.625C53.4922 16.4538 53.1629 17.2487 52.5769 17.8347C51.9908 18.4208 51.196 18.75 50.3672 18.75C49.5384 18.75 48.7435 18.4208 48.1575 17.8347C47.5714 17.2487 47.2422 16.4538 47.2422 15.625V3.125C47.2422 2.2962 47.5714 1.50134 48.1575 0.915291C48.7435 0.32924 49.5384 0 50.3672 0ZM50.3672 81.25C51.196 81.25 51.9908 81.5792 52.5769 82.1653C53.1629 82.7513 53.4922 83.5462 53.4922 84.375V96.875C53.4922 97.7038 53.1629 98.4987 52.5769 99.0847C51.9908 99.6708 51.196 100 50.3672 100C49.5384 100 48.7435 99.6708 48.1575 99.0847C47.5714 98.4987 47.2422 97.7038 47.2422 96.875V84.375C47.2422 83.5462 47.5714 82.7513 48.1575 82.1653C48.7435 81.5792 49.5384 81.25 50.3672 81.25ZM100.367 50C100.367 50.8288 100.038 51.6237 99.4519 52.2097C98.8658 52.7958 98.071 53.125 97.2422 53.125H84.7422C83.9134 53.125 83.1185 52.7958 82.5325 52.2097C81.9464 51.6237 81.6172 50.8288 81.6172 50C81.6172 49.1712 81.9464 48.3763 82.5325 47.7903C83.1185 47.2042 83.9134 46.875 84.7422 46.875H97.2422C98.071 46.875 98.8658 47.2042 99.4519 47.7903C100.038 48.3763 100.367 49.1712 100.367 50ZM19.1172 50C19.1172 50.8288 18.7879 51.6237 18.2019 52.2097C17.6158 52.7958 16.821 53.125 15.9922 53.125H3.49219C2.66339 53.125 1.86853 52.7958 1.28248 52.2097C0.696428 51.6237 0.367188 50.8288 0.367188 50C0.367188 49.1712 0.696428 48.3763 1.28248 47.7903C1.86853 47.2042 2.66339 46.875 3.49219 46.875H15.9922C16.821 46.875 17.6158 47.2042 18.2019 47.7903C18.7879 48.3763 19.1172 49.1712 19.1172 50ZM85.7234 14.6437C86.3093 15.2298 86.6384 16.0245 86.6384 16.8531C86.6384 17.6818 86.3093 18.4765 85.7234 19.0625L76.8859 27.9062C76.5954 28.1964 76.2505 28.4265 75.8711 28.5833C75.4916 28.7402 75.085 28.8208 74.6744 28.8205C73.8451 28.8199 73.05 28.4899 72.4641 27.9031C72.1739 27.6126 71.9439 27.2677 71.787 26.8883C71.6301 26.5088 71.5495 26.1021 71.5498 25.6915C71.5504 24.8623 71.8804 24.0672 72.4672 23.4813L81.3047 14.6437C81.8907 14.0579 82.6854 13.7288 83.5141 13.7288C84.3427 13.7288 85.1374 14.0579 85.7234 14.6437ZM28.2672 72.1C28.853 72.686 29.1821 73.4807 29.1821 74.3094C29.1821 75.138 28.853 75.9327 28.2672 76.5188L19.4297 85.3562C18.8403 85.9255 18.0509 86.2405 17.2316 86.2334C16.4122 86.2262 15.6284 85.8976 15.049 85.3182C14.4696 84.7388 14.141 83.955 14.1338 83.1356C14.1267 82.3163 14.4417 81.5269 15.0109 80.9375L23.8484 72.1C24.4345 71.5142 25.2292 71.185 26.0578 71.185C26.8864 71.185 27.6812 71.5142 28.2672 72.1ZM85.7234 85.3562C85.1374 85.9421 84.3427 86.2712 83.5141 86.2712C82.6854 86.2712 81.8907 85.9421 81.3047 85.3562L72.4672 76.5188C71.8979 75.9294 71.583 75.14 71.5901 74.3206C71.5972 73.5013 71.9258 72.7175 72.5052 72.1381C73.0846 71.5587 73.8684 71.23 74.6878 71.2229C75.5072 71.2158 76.2966 71.5308 76.8859 72.1L85.7234 80.9375C86.3093 81.5235 86.6384 82.3182 86.6384 83.1469C86.6384 83.9755 86.3093 84.7702 85.7234 85.3562ZM28.2672 27.9062C27.6812 28.4921 26.8864 28.8212 26.0578 28.8212C25.2292 28.8212 24.4345 28.4921 23.8484 27.9062L15.0109 19.0625C14.7125 18.7742 14.4744 18.4294 14.3106 18.0481C14.1468 17.6669 14.0606 17.2568 14.057 16.8419C14.0534 16.4269 14.1325 16.0154 14.2896 15.6314C14.4467 15.2473 14.6788 14.8984 14.9722 14.605C15.2656 14.3116 15.6145 14.0796 15.9986 13.9224C16.3826 13.7653 16.7941 13.6862 17.2091 13.6898C17.624 13.6934 18.0341 13.7797 18.4153 13.9434C18.7966 14.1072 19.1414 14.3453 19.4297 14.6437L28.2672 23.4813C28.5582 23.7715 28.7891 24.1164 28.9466 24.496C29.1042 24.8757 29.1853 25.2827 29.1853 25.6938C29.1853 26.1048 29.1042 26.5118 28.9466 26.8915C28.7891 27.2711 28.5582 27.616 28.2672 27.9062Z" fill="white"/>
</g>
<defs>
<clipPath id="clip0_87_70">
<rect width="100" height="100" fill="white" transform="translate(0.367188)"/>
</clipPath>
</defs>
</svg>
